<?xml version="1.0" standalone="no"?>
<!DOCTYPE svg PUBLIC "-//W3C//DTD SVG 20010904//EN"
 "http://www.w3.org/TR/2001/REC-SVG-20010904/DTD/svg10.dtd">
<svg version="1.0" xmlns="http://www.w3.org/2000/svg"
 width="950.000000pt" height="950.000000pt" viewBox="0 0 950.000000 950.000000"
 preserveAspectRatio="xMidYMid meet">
<metadata>
Created by potrace 1.11, written by Peter Selinger 2001-2013
</metadata>
<g transform="translate(0.000000,950.000000) scale(0.100000,-0.100000)"
fill="#000000" stroke="none">
<path d="M310 7691 c-69 -21 -130 -73 -166 -141 -18 -34 -19 -100 -22 -1770
l-2 -1734 -39 -41 c-83 -86 -76 8 -76 -1065 l0 -955 22 -40 c25 -47 74 -95
123 -121 34 -18 167 -19 4600 -19 4433 0 4566 1 4600 19 49 26 98 74 123 121
l22 40 0 955 c0 1073 7 979 -76 1065 l-39 41 -2 1734 -3 1735 -22 40 c-25 47
-74 95 -123 121 -34 18 -165 19 -4465 21 -2436 1 -4441 -2 -4455 -6z m7895
-622 c34 -8 75 -46 258 -232 120 -122 230 -242 245 -267 l27 -45 3 -1585 c2
-1179 -1 -1592 -9 -1613 -7 -15 -21 -34 -33 -42 -18 -13 -519 -15 -3938 -15
l-3917 0 -28 24 -28 24 0 1609 c0 1483 1 1610 17 1638 9 17 98 127 197 245
146 174 191 220 232 243 l51 27 3442 0 c2352 0 3454 -3 3481 -11z"/>
<path d="M2512 5681 c-256 -63 -459 -271 -516 -528 -22 -101 -22 -426 0 -526
58 -260 256 -461 518 -527 78 -20 113 -20 2206 -20 2093 0 2128 0 2206 20 211
53 380 192 469 385 53 114 65 189 65 405 0 223 -12 294 -70 415 -73 150 -175
252 -325 325 -157 75 22 70 -2352 69 -2009 0 -2132 -1 -2201 -18z"/>
</g>
</svg>
